<?xml version="1.0" encoding="UTF-8" standalone="no"?>
<!-- Created with Inkscape (http://www.inkscape.org/) -->

<svg
   width="181.83687mm"
   height="166.92091mm"
   viewBox="0 0 181.83687 166.92091"
   version="1.1"
   id="svg1"
   xml:space="preserve"
   inkscape:version="1.3.2 (091e20ef0f, 2023-11-25, custom)"
   sodipodi:docname="Xray_OS New Logo.svg"
   xmlns:inkscape="http://www.inkscape.org/namespaces/inkscape"
   xmlns:sodipodi="http://sodipodi.sourceforge.net/DTD/sodipodi-0.dtd"
   xmlns="http://www.w3.org/2000/svg"
   xmlns:svg="http://www.w3.org/2000/svg"><sodipodi:namedview
     id="namedview1"
     pagecolor="#ffffff"
     bordercolor="#000000"
     borderopacity="0.25"
     inkscape:showpageshadow="2"
     inkscape:pageopacity="0.0"
     inkscape:pagecheckerboard="0"
     inkscape:deskcolor="#d1d1d1"
     inkscape:document-units="mm"
     showgrid="false"
     inkscape:zoom="0.70710678"
     inkscape:cx="-125.1579"
     inkscape:cy="288.49957"
     inkscape:window-width="1920"
     inkscape:window-height="1025"
     inkscape:window-x="0"
     inkscape:window-y="0"
     inkscape:window-maximized="1"
     inkscape:current-layer="layer1" /><defs
     id="defs1" /><g
     inkscape:label="Layer 1"
     inkscape:groupmode="layer"
     id="layer1"
     transform="translate(227.04517,-61.688054)"
     style="display:inline"><g
       id="g10"
       transform="translate(-248.70843)"
       style="display:inline"><path
         id="path17"
         style="fill:#d0d0d0;fill-opacity:1"
         d="m 100.84415,62.606861 c -0.0919,-0.0038 -0.19647,0.01294 -0.29197,0.05116 -0.21107,0.08446 -0.14854,0.147497 0.15968,0.160197 0.27887,0.01149 0.43516,-0.05109 0.34726,-0.139009 -0.044,-0.04396 -0.12305,-0.06856 -0.21497,-0.07235 z m 8.73125,0 c -0.0919,-0.0038 -0.19647,0.01294 -0.29197,0.05116 -0.21107,0.08446 -0.14854,0.147497 0.15968,0.160197 0.27887,0.01149 0.43516,-0.05109 0.34726,-0.139009 -0.044,-0.04396 -0.12305,-0.06856 -0.21497,-0.07235 z M 48.875747,84.667013 46.825226,86.64467 c -1.127783,1.087761 -2.050521,2.010501 -2.050521,2.050521 0,0.19349 0.286495,-0.07318 2.123385,-1.977657 z m 112.593123,0.132292 c -0.0728,0 0.75505,0.892972 1.83917,1.984375 1.08412,1.091403 2.03043,1.984375 2.10323,1.984375 0.0728,0 -0.75453,-0.892972 -1.83865,-1.984375 -1.08412,-1.091403 -2.03095,-1.984375 -2.10375,-1.984375 z M 22.623602,140.46206 c -0.02782,0.0278 -0.04688,0.12028 -0.05323,0.2744 -0.01149,0.27886 0.05109,0.43516 0.139009,0.34726 0.08792,-0.0879 0.09762,-0.31595 0.02119,-0.50694 -0.04223,-0.10554 -0.07915,-0.14254 -0.106971,-0.11472 z m 164.835418,0 c -0.0278,0.0278 -0.0469,0.12028 -0.0532,0.2744 -0.0115,0.27886 0.0511,0.43516 0.13901,0.34726 0.0879,-0.0879 0.0976,-0.31595 0.0212,-0.50694 -0.0422,-0.10554 -0.0791,-0.14254 -0.10697,-0.11472 z m -164.835418,8.73125 c -0.02782,0.0278 -0.04688,0.12028 -0.05323,0.2744 -0.01149,0.27886 0.05109,0.43516 0.139009,0.34726 0.08792,-0.0879 0.09762,-0.31595 0.02119,-0.50694 -0.04223,-0.10554 -0.07915,-0.14254 -0.106971,-0.11472 z m 164.835418,0 c -0.0278,0.0278 -0.0469,0.12028 -0.0532,0.2744 -0.0115,0.27886 0.0511,0.43516 0.13901,0.34726 0.0879,-0.0879 0.0976,-0.31595 0.0212,-0.50694 -0.0422,-0.10554 -0.0791,-0.14254 -0.10697,-0.11472 z m -21.90202,52.15495 -2.05052,1.97766 c -1.12779,1.08777 -2.05052,2.01052 -2.05052,2.05052 0,0.19349 0.28649,-0.0732 2.12338,-1.97766 z m -120.769376,0.13229 c -0.07276,0 0.755045,0.89297 1.839164,1.98438 1.084119,1.0914 2.030471,1.98437 2.103231,1.98437 0.07276,0 -0.754528,-0.89297 -1.838647,-1.98437 -1.084119,-1.09141 -2.030988,-1.98438 -2.103748,-1.98438 z m 56.056526,25.96173 c -0.0919,-0.004 -0.19647,0.013 -0.29197,0.0512 -0.21107,0.0845 -0.14854,0.14749 0.15968,0.16019 0.27887,0.0115 0.43516,-0.0511 0.34726,-0.13901 -0.044,-0.0439 -0.12305,-0.0686 -0.21497,-0.0723 z m 8.73125,0 c -0.0919,-0.004 -0.19647,0.013 -0.29197,0.0512 -0.21107,0.0845 -0.14854,0.14749 0.15968,0.16019 0.27887,0.0115 0.43516,-0.0511 0.34726,-0.13901 -0.044,-0.0439 -0.12305,-0.0686 -0.21497,-0.0723 z" /><path
         id="path16"
         style="fill:#b9b9b9;fill-opacity:1"
         d="m 49.537205,84.005555 c -0.01366,-0.01366 -0.120907,0.06644 -0.330729,0.230993 -0.254661,0.199719 -0.463021,0.408081 -0.463021,0.463021 0,0.217761 0.217117,0.07744 0.562756,-0.363285 0.164557,-0.209819 0.24465,-0.317073 0.230994,-0.330729 z m 111.125005,0 c -0.0137,0.01366 0.0659,0.120907 0.23047,0.330729 h 5.2e-4 c 0.19972,0.254661 0.40812,0.463021 0.46302,0.463021 0.21776,0 0.0774,-0.217113 -0.36329,-0.562757 -0.20982,-0.164556 -0.3171,-0.244649 -0.33072,-0.230993 z m -115.887505,4.7625 c -0.01366,-0.01366 -0.120907,0.06644 -0.330729,0.230993 -0.254661,0.199719 -0.463021,0.408081 -0.463021,0.463021 0,0.217761 0.217117,0.07744 0.562756,-0.363285 0.164552,-0.209824 0.244651,-0.317072 0.230994,-0.330729 z m 120.650005,0 c -0.0137,0.01366 0.0659,0.120907 0.23047,0.330729 h 5.2e-4 c 0.19972,0.254661 0.40812,0.463021 0.46302,0.463021 0.21776,0 0.0774,-0.217113 -0.36329,-0.562757 -0.20982,-0.164551 -0.3171,-0.244651 -0.33072,-0.230993 z M 43.980955,200.6868 c -0.01366,0.0137 0.06644,0.12091 0.230994,0.33073 0.34564,0.44073 0.562756,0.58105 0.562756,0.36329 0,-0.0549 -0.20836,-0.2633 -0.463021,-0.46302 -0.209824,-0.16455 -0.317072,-0.24465 -0.330729,-0.231 z m 122.237505,0 c -0.0137,-0.0137 -0.12091,0.0664 -0.33073,0.231 -0.25466,0.19972 -0.46302,0.40802 -0.46302,0.46302 0,0.21776 0.21711,0.0774 0.56275,-0.36329 0.16455,-0.20982 0.24462,-0.31707 0.231,-0.33073 z m -117.475005,4.7625 c -0.01366,0.0137 0.06644,0.12091 0.230994,0.33073 h -5.17e-4 c 0.345644,0.44073 0.563273,0.58105 0.563273,0.36329 0,-0.0549 -0.20836,-0.2633 -0.463021,-0.46302 -0.209819,-0.16455 -0.317073,-0.24465 -0.330729,-0.231 z m 112.712505,0 c -0.0137,-0.0136 -0.12091,0.0664 -0.33073,0.231 -0.25466,0.19972 -0.46302,0.40812 -0.46302,0.46302 0,0.21776 0.21711,0.0774 0.56275,-0.36329 0.16455,-0.20982 0.24462,-0.31707 0.231,-0.33073 z" /><path
         id="path12"
         style="display:inline;fill:#606060;fill-opacity:1"
         d="m 162.382,85.460763 1.04593,1.124479 c 0.57524,0.618464 1.08128,1.124479 1.12448,1.124479 0.20018,0 -2.1e-4,-0.230368 -1.04593,-1.203027 z M 47.660317,85.593055 c -0.07276,0 -0.597434,0.476253 -1.16582,1.058333 -0.568389,0.58208 -0.973997,1.058333 -0.901237,1.058333 0.07276,0 0.597433,-0.476253 1.16582,-1.058333 0.568386,-0.58208 0.973997,-1.058333 0.901237,-1.058333 z m -2.224154,116.813545 1.045931,1.12448 c 0.575236,0.61844 1.081252,1.12447 1.124479,1.12447 0.200178,0 -1.81e-4,-0.23036 -1.04593,-1.20302 z m 119.169987,0.13229 c -0.0728,0 -0.59743,0.47625 -1.16582,1.05833 -0.56839,0.58208 -0.97404,1.05833 -0.90124,1.05833 0.0728,0 0.59743,-0.47625 1.16582,-1.05833 0.56839,-0.58208 0.97404,-1.05833 0.90124,-1.05833 z" /><path
         id="path89"
         style="display:inline;fill:#ffffff;stroke-width:0.707107"
         sodipodi:type="inkscape:offset"
         inkscape:radius="1.3759103"
         inkscape:original="M -450.07422 150.25977 C -479.50189 150.25992 -485.0961 150.43286 -492.14648 151.55273 C -549.85199 160.71861 -599.31509 181.76624 -643.11328 215.79297 C -653.14533 223.58684 -683.45867 253.57774 -691.94727 264.10742 C -726.61147 307.10656 -748.37139 355.49582 -758.17383 411.38672 L -760.49414 424.61719 L -760.49414 461.0332 L -760.49414 497.44922 L -758.49219 508.76367 C -750.0981 556.20632 -735.24699 594.6324 -710.8457 632.05273 C -698.0131 651.73202 -690.82125 660.40089 -670.46484 680.72656 C -654.33597 696.83109 -647.43218 702.99062 -636.39648 711.11914 C -591.89511 743.89731 -547.28056 761.83828 -488.11719 770.74805 C -479.96782 771.97531 -475.96333 772.08472 -447.95117 771.83594 C -424.51978 771.62785 -414.86443 771.28003 -408.83984 770.42969 C -352.44211 762.46945 -298.58231 739.4058 -254.91211 704.51367 C -244.25303 695.99715 -214.64657 666.31321 -206.36719 655.8418 C -177.62813 619.4938 -158.28851 580.20087 -147.19922 535.63281 C -141.18467 511.46024 -139.55192 499.39058 -139.02734 475.17578 C -138.46268 449.11111 -139.51205 424.64447 -141.74023 411.89062 C -152.08146 352.6985 -176.7126 299.92934 -214.35352 256.32422 C -216.82667 253.45919 -219.09516 251.09366 -219.39453 251.06836 C -219.69391 251.04312 -226.37449 244.57871 -234.24219 236.70312 C -248.56468 222.36629 -258.00216 214.4565 -273.51562 203.7793 C -307.70458 180.24864 -349.09371 162.91853 -391.0293 154.57617 C -412.26526 150.3516 -413.51065 150.2596 -450.07422 150.25977 z "
         d="m -450.07422,148.88477 c -29.43303,1.5e-4 -35.149,0.17447 -42.28906,1.30859 -57.90744,9.19795 -107.61635,30.34771 -151.59375,64.51367 -10.32204,8.01916 -40.36863,37.75522 -49.06055,48.53711 -34.80414,43.17273 -56.67278,91.80529 -66.51172,147.9043 l -2.32031,13.23047 a 1.3760479,1.3760479 0 0 0 -0.0195,0.23828 v 36.41601 36.41602 a 1.3760479,1.3760479 0 0 0 0.0195,0.24023 l 2.00195,11.31446 c 8.42039,47.59125 23.35247,86.23345 47.84961,123.80078 12.86008,19.72143 20.1804,28.54711 40.56055,48.89648 16.14364,16.11928 23.14231,22.36255 34.22461,30.52539 44.66186,32.89638 89.55908,50.94772 148.89062,59.88281 8.20309,1.23535 12.36594,1.35039 40.38282,1.10157 23.44162,-0.20818 33.1164,-0.54646 39.29101,-1.41797 56.64182,-7.99469 110.72553,-31.15317 154.59571,-66.20508 10.90645,-8.71417 40.2811,-38.16172 48.76562,-48.89258 28.85198,-36.49082 48.2898,-75.98259 59.42383,-120.73047 6.02637,-24.22006 7.68523,-36.49308 8.21094,-60.75976 0.56586,-26.12019 -0.46551,-50.57522 -2.73243,-63.55078 -10.3811,-59.42037 -35.12207,-112.43255 -72.92773,-156.22852 -1.25015,-1.44824 -2.44527,-2.76855 -3.38281,-3.74609 -0.46877,-0.48878 -0.87092,-0.89131 -1.20117,-1.19532 -0.16513,-0.152 -0.30848,-0.27699 -0.46289,-0.39453 -0.0772,-0.0588 -0.15609,-0.11621 -0.26954,-0.18164 -0.0136,-0.008 -0.0641,-0.0165 -0.0781,-0.0254 -7.4e-4,-4.7e-4 -0.003,-0.001 -0.004,-0.002 -0.10215,-0.0652 -0.19223,-0.15181 -0.56836,-0.18359 0.5497,0.0463 0.51231,0.14993 0.55469,0.17578 0.0205,0.0125 0.0101,0.005 0.0137,0.008 -0.0293,-0.0226 -0.0948,-0.077 -0.18945,-0.1582 -0.20207,-0.17343 -0.50959,-0.4525 -0.89844,-0.8125 -0.7777,-0.72002 -1.88327,-1.7725 -3.22461,-3.07032 -2.68268,-2.59563 -6.31683,-6.17617 -10.24609,-10.10937 -14.35723,-14.3716 -23.90661,-22.37462 -39.4668,-33.08399 -34.35623,-23.64578 -75.90212,-41.04022 -118.02539,-49.41992 -21.24228,-4.22583 -22.74666,-4.34196 -59.3125,-4.34179 z"
         transform="matrix(0.26458333,0,0,0.26458333,224.1622,23.151388)" /><path
         id="path10"
         style="display:inline;fill:#000000;fill-opacity:1"
         d="m 105.09971,61.688054 c -3.4945,0 -6.989017,0.10443 -8.863547,0.313676 C 80.286671,63.782099 66.21547,69.484667 53.551947,79.300416 49.918983,82.116398 42.091798,89.943577 39.275816,93.576547 29.460073,106.24008 23.757499,120.31129 21.97713,136.26076 c -0.418488,3.74908 -0.418488,13.97801 0,17.72709 2.36013,21.14328 11.879974,39.55185 27.809155,53.77449 13.484539,12.03994 30.579951,19.26615 48.96342,20.69745 3.983885,0.31018 12.212905,0.11578 16.519405,-0.39016 15.00083,-1.76236 28.85289,-7.47359 41.1887,-16.98191 3.76768,-2.9041 11.5672,-10.67679 14.46527,-14.41566 9.81574,-12.66349 15.51882,-26.73473 17.2992,-42.68421 0.41849,-3.74908 0.41849,-13.97801 0,-17.72709 -1.78038,-15.94947 -7.48346,-30.02068 -17.2992,-42.684213 -2.816,-3.63297 -10.64263,-11.460149 -14.27562,-14.276131 -12.66349,-9.815749 -26.73474,-15.518317 -42.68421,-17.298686 -1.87454,-0.209246 -5.36909,-0.313676 -8.86354,-0.313676 z m 0,1.033528 c 7.30156,0 8.79338,0.07261 12.03854,0.584461 12.50402,1.972247 23.86488,6.371158 33.99895,13.164571 19.41092,13.012102 32.06022,33.027046 35.78077,56.615146 0.51185,3.24516 0.58446,4.73698 0.58446,12.03854 0,7.30162 -0.0726,8.79339 -0.58446,12.03855 -1.53551,9.73508 -4.78327,19.44149 -9.20771,27.51666 -12.51127,22.83486 -34.47568,38.18385 -60.43869,42.23567 -2.88784,0.45068 -5.01878,0.57175 -11.11353,0.63045 -4.14734,0.04 -7.95735,0.0236 -8.466668,-0.0362 C 82.495562,225.72479 70.548379,221.47775 59.062205,213.778 39.651322,200.76588 27.00197,180.75095 23.281443,157.16285 c -0.511847,-3.24516 -0.58446,-4.73693 -0.58446,-12.03855 0,-7.30156 0.07261,-8.79338 0.58446,-12.03854 1.972248,-12.50399 6.371158,-23.86484 13.164571,-33.998955 C 49.458116,79.675951 69.473033,67.026564 93.061163,63.306043 96.30631,62.79419 97.798102,62.721582 105.09971,62.721582 Z m 47.5635,49.000628 c 0.003,-5.6e-4 -0.008,0.002 -0.008,0.003 0.003,-7e-4 0.005,-0.001 0.008,-0.002 z m -0.008,0.003 c -0.0242,0.006 -0.0399,0.0122 -0.0656,0.0176 0.008,-0.001 0.0169,-0.002 0.0253,-0.004 0.014,-0.002 0.0382,-0.0114 0.0403,-0.0134 z" /></g><path
       id="path88"
       style="display:inline;fill:#00ffff"
       sodipodi:type="inkscape:offset"
       inkscape:radius="6.5793476"
       inkscape:original="M -350.12109 248.37891 C -356.10271 248.29199 -358.74297 248.37347 -358.95312 248.59375 C -359.42836 249.09187 -370.94163 283.475 -384.53906 325 C -398.13648 366.525 -409.47649 401.0625 -409.73828 401.75 C -410.27122 403.14953 -397.30126 403.28595 -372.74805 402.14062 C -362.16374 401.64689 -358.99705 401.78487 -358.99805 402.73438 C -358.99893 403.41286 -361.29498 409.71287 -364.09961 416.73438 C -379.96514 456.45438 -408.03459 528.2994 -407.78516 528.54883 C -407.62483 528.70916 -395.69186 528.11647 -381.26758 527.23242 C -366.84329 526.34837 -354.79749 525.87049 -354.49805 526.16992 C -354.02339 526.64459 -380.95515 600.38364 -419.80469 704.98047 C -420.82964 707.74 -412.41564 699.51707 -304.6875 592.48828 L -197.87305 486.36914 L -225.9375 486.81445 C -241.37228 487.05918 -254 486.94419 -254 486.55859 C -254 485.83376 -243.39506 472.63459 -190.08008 407 L -158.80664 368.5 L -182.98047 368.23242 C -196.27601 368.08504 -207.00816 367.61457 -206.82812 367.1875 C -206.64809 366.76044 -186.025 342.19204 -161 312.58984 C -135.975 282.98765 -115.34935 258.36867 -115.16602 257.88281 C -114.98268 257.39694 -116.10768 256.99905 -117.66602 256.99805 C -119.22435 256.99675 -147.95 255.89277 -181.5 254.54492 C -284.1622 250.42051 -332.17623 248.63965 -350.12109 248.37891 z "
       d="m -356.87109,241.79492 c -5.02312,-2.76854 -11.67876,10.5811 -8.42188,4.875 -2.24035,6.15595 -0.31592,0.74996 -2.16601,6.08985 -1.37029,3.97603 -3.28329,9.62777 -5.60547,16.5625 -4.64436,13.86945 -10.92408,32.85684 -17.72657,53.63085 -6.79824,20.76109 -13.03301,39.77513 -17.5996,53.6836 -2.2833,6.95423 -4.14984,12.63188 -5.46094,16.61133 -0.65555,1.98972 -1.17189,3.55635 -1.53125,4.64062 -0.17969,0.54214 -0.32123,0.96503 -0.41797,1.25391 -0.0967,0.28887 -0.29406,0.81217 -0.0859,0.26562 -0.82608,2.16933 0.12715,5.70445 1.375,7.05469 1.24785,1.35024 2.15727,1.63041 2.83789,1.89258 1.36124,0.52433 2.19937,0.60645 3.2168,0.73437 2.03486,0.25586 4.49051,0.35443 7.73633,0.38868 6.49163,0.0685 15.93669,-0.18989 28.27929,-0.76563 2.25375,-0.10513 2.83834,-0.0623 4.41602,-0.10547 -0.70267,1.85012 -1.3296,3.54754 -2.18359,5.68555 -7.94385,19.88775 -18.9297,47.78505 -27.9043,70.75586 -4.4873,11.4854 -8.4708,21.73678 -11.32227,29.14648 -1.42573,3.70485 -2.56786,6.69634 -3.35547,8.79688 -0.3938,1.05027 -0.69617,1.87106 -0.91601,2.48828 -0.10992,0.30861 -0.19659,0.55554 -0.28516,0.83203 -0.0443,0.13824 -0.0866,0.26334 -0.16015,0.55273 -0.0368,0.1447 -0.0851,0.29901 -0.14844,0.75196 -0.0317,0.22647 -0.0839,0.50657 -0.0606,1.16015 0.0233,0.65359 1.92286,4.42286 1.92383,4.42383 6.3e-4,6.3e-4 0.88322,0.75542 1.21875,0.96094 0.33553,0.20552 0.60289,0.33232 0.82813,0.42969 0.45046,0.19474 0.73796,0.27297 0.96484,0.33203 0.45375,0.11811 0.67299,0.14092 0.85351,0.16406 0.36106,0.0463 0.51911,0.0501 0.67188,0.0566 0.30553,0.013 0.51341,0.0115 0.75586,0.01 0.48489,-0.003 1.05285,-0.0185 1.76758,-0.043 1.42945,-0.049 3.40586,-0.13755 5.82812,-0.25781 4.84452,-0.24054 11.4505,-0.61138 18.6836,-1.05469 6.65367,-0.4078 12.5273,-0.70072 17.19921,-0.89649 -0.54062,1.54223 -0.87278,2.52638 -1.57226,4.49219 -3.05341,8.58118 -7.58422,21.10195 -13.3457,36.87695 -11.52298,31.55002 -27.96685,76.1275 -47.38868,128.41797 -0.11348,0.30555 -0.25459,0.67138 -0.3789,1.38282 -0.12431,0.71144 -0.51835,1.90906 0.5664,4.14648 1.08476,2.23742 4.63788,3.82659 6.32227,3.74805 1.68438,-0.0786 2.30755,-0.49277 2.81445,-0.74414 2.02761,-1.0055 2.32125,-1.53985 3.60352,-2.67188 2.56454,-2.26405 6.87171,-6.37246 14.61523,-13.93945 15.48704,-15.13399 44.5139,-43.93975 98.37891,-97.45508 l 106.81445,-106.11914 a 6.5800055,6.5800055 0 0 0 -4.74023,-11.24609 l -28.06446,0.44531 c -5.81392,0.0922 -10.43494,0.0876 -14.89453,0.082 1.41642,-1.77959 2.03763,-2.59479 4.03125,-5.07617 9.29465,-11.56863 25.27566,-31.27831 51.93164,-64.09375 l 31.27344,-38.5 a 6.5800055,6.5800055 0 0 0 -5.03515,-10.72657 l -24.17383,-0.26757 c -4.16028,-0.0461 -7.2051,-0.16179 -10.58203,-0.25977 1.74148,-2.08234 3.0685,-3.67886 5.29882,-6.33594 8.29896,-9.88689 19.7084,-23.42445 32.2168,-38.2207 12.51769,-14.80724 23.93321,-28.36803 32.25,-38.29492 4.1584,-4.96345 7.54066,-9.01783 9.90625,-11.875 1.1828,-1.42859 2.11004,-2.55428 2.76758,-3.36524 0.32877,-0.40548 0.58664,-0.72765 0.80078,-1.00195 0.10707,-0.13715 0.19859,-0.25693 0.31641,-0.41797 0.0589,-0.0805 0.12192,-0.16525 0.22851,-0.32617 0.10659,-0.16092 0.19828,-0.0343 0.69531,-1.35156 0.93522,-2.47841 -0.30091,-6.00017 -1.5625,-7.28125 -1.26158,-1.28108 -2.21138,-1.58953 -2.99609,-1.86719 -1.56869,-0.55506 -2.75444,-0.63774 -4.0918,-0.63867 h -0.002 c 0.36822,2.6e-4 -2.2528,-0.0651 -5.67969,-0.18945 -3.42806,-0.12444 -8.20998,-0.30514 -13.99218,-0.52735 -11.56441,-0.44442 -27.13063,-1.05667 -43.90235,-1.73047 -102.66841,-4.12466 -150.57953,-5.90533 -168.78906,-6.16992 -3.03473,-0.0441 -5.2374,-0.0474 -6.8457,-0.006 z"
       transform="matrix(0.26458333,0,0,0.26458333,-24.546225,23.151388)" /><path
       style="display:inline;fill:#000000"
       d="m -143.72989,222.34732 c 0.008,-0.0512 4.86388,-12.96558 10.79125,-28.69857 6.62488,-17.58441 10.74567,-28.61661 10.69565,-28.63443 -0.0448,-0.0159 -3.73323,0.42721 -8.19662,0.98478 -4.46339,0.55758 -8.12188,1.00381 -8.12998,0.99164 -0.008,-0.0122 2.97612,-7.73412 6.63159,-17.1599 3.65547,-9.42577 6.64715,-17.19751 6.64817,-17.27053 0.002,-0.12556 -0.33654,-0.10896 -6.23349,0.30572 -3.42944,0.24116 -6.35699,0.43944 -6.50567,0.44062 l -0.27033,0.002 0.0795,-0.23404 c 0.0437,-0.12872 3.05575,-11.19927 6.69337,-24.60122 3.63761,-13.401953 6.62453,-24.37171 6.63758,-24.377241 0.0573,-0.02429 79.653486,3.195043 79.680536,3.222743 0.0166,0.01699 -6.405567,6.921138 -14.271471,15.342548 -10.809744,11.57315 -14.270515,15.32063 -14.174135,15.34842 0.0701,0.0202 3.299151,0.0675 7.175588,0.105 3.876437,0.0375 7.066307,0.0869 7.088587,0.1097 0.0223,0.0228 -5.926167,6.99808 -13.218784,15.50059 -7.292608,8.50251 -13.237338,15.46938 -13.210498,15.48192 0.0268,0.0125 4.257384,-0.0227 9.401211,-0.0784 5.143817,-0.0556 9.356994,-0.0944 9.362614,-0.0861 0.007,0.0107 -74.435068,71.26024 -76.456108,73.17693 -0.12804,0.12143 -0.2264,0.17887 -0.21858,0.12764 z m 37.59304,-41.23322 c 16.281839,-16.16562 29.592414,-29.40322 29.579064,-29.41689 -0.0133,-0.0137 -3.399698,0.0406 -7.525217,0.12064 -4.125507,0.08 -7.543253,0.13144 -7.594975,0.11427 -0.05634,-0.0187 5.038638,-6.33007 12.710241,-15.74472 7.042358,-8.64243 12.787805,-15.73038 12.767675,-15.75099 -0.0201,-0.0206 -2.937571,-0.0499 -6.483197,-0.0651 -3.545617,-0.0152 -6.454258,-0.035 -6.463628,-0.044 -0.009,-0.009 5.546987,-6.58542 12.347455,-14.61427 6.800457,-8.028842 12.351254,-14.611436 12.335094,-14.627983 -0.0329,-0.03367 -65.134342,-2.558426 -65.184012,-2.527959 -0.0694,0.04255 -13.67447,41.448302 -13.63303,41.490732 0.0245,0.0251 3.12768,-0.0923 6.89601,-0.26086 3.76833,-0.16854 6.86039,-0.29734 6.87123,-0.28624 0.0108,0.0111 -2.98176,7.59506 -6.65023,16.85321 -3.66848,9.25816 -6.65726,16.84551 -6.64172,16.86079 0.0155,0.0153 3.27563,-0.18177 7.24466,-0.43788 3.96903,-0.25611 7.23139,-0.45032 7.24969,-0.43158 0.0258,0.0264 -17.66456,47.93113 -17.93418,48.5651 -0.0811,0.1906 -3.82733,3.89794 30.10907,-29.7962 z"
       id="path84" /><g
       id="g25"
       transform="translate(-248.70843)"
       style="display:inline"><path
         id="path18"
         style="display:inline;fill:#d0d0d0;fill-opacity:1"
         d="m 63.030955,98.557638 c -0.01366,0.01366 0.06644,0.120907 0.230994,0.330729 0.199616,0.254468 0.407594,0.463021 0.462504,0.463021 0.217762,0 0.07796,-0.217114 -0.362769,-0.562756 -0.209819,-0.164551 -0.317073,-0.244651 -0.330729,-0.230994 z m 93.001045,8.069792 0.6413,0.7276 c 0.35279,0.40018 0.68021,0.72761 0.72761,0.72761 0.20751,0 0.0387,-0.21439 -0.64131,-0.81391 z m -26.32604,21.29896 c -0.0137,0.0137 0.0659,0.1209 0.23047,0.33073 0.19972,0.25466 0.40812,0.46302 0.46302,0.46302 0.21776,0 0.0779,-0.21712 -0.36277,-0.56276 -0.20982,-0.16455 -0.31708,-0.24465 -0.33072,-0.23099 z m 3.70416,3.70416 c -0.0137,0.0137 0.0664,0.12091 0.231,0.33073 0.19972,0.25466 0.40812,0.46302 0.46302,0.46302 0.21776,0 0.0774,-0.21711 -0.36329,-0.56275 -0.20982,-0.16455 -0.31707,-0.24465 -0.33073,-0.231 z m -83.119473,14.02292 c -0.07276,0 -0.411668,0.29766 -0.753442,0.66146 -0.341775,0.3638 -0.562136,0.66146 -0.489376,0.66146 0.07276,0 0.412187,-0.29766 0.753959,-0.66146 0.341774,-0.3638 0.561619,-0.66146 0.488859,-0.66146 z m 5.861141,43.65625 c -0.01366,0.0137 0.06644,0.12091 0.230994,0.33073 h -5.17e-4 c 0.345644,0.44072 0.563273,0.58106 0.563273,0.36329 0,-0.0549 -0.208361,-0.26331 -0.46302,-0.46303 -0.20982,-0.16453 -0.317074,-0.24464 -0.33073,-0.23099 z" /><path
         id="path25"
         style="display:inline;fill:#000000;fill-opacity:1"
         d="m 60.138108,97.594906 c -0.380186,-0.0299 -0.770016,-0.01904 -1.16582,0.03101 -2.638674,0.333666 -5.53941,2.412054 -7.562846,5.806874 -2.014588,3.38005 -3.674901,9.97569 -3.918107,15.56391 -0.114667,2.63478 -0.07285,3.37344 0.190686,3.37344 0.18558,0 1.511559,-0.84432 2.947107,-1.87637 3.178837,-2.28535 7.255237,-4.39147 10.730611,-5.54437 3.701543,-1.22793 4.63992,-2.38372 5.033801,-6.20014 0.321748,-3.11735 -1.197016,-7.74388 -3.200321,-9.747201 -0.861414,-0.861413 -1.914536,-1.317456 -3.055111,-1.407149 z m 85.207722,4.980054 c -0.71708,-0.0257 -1.46853,-0.0144 -2.26756,0.032 -7.44746,0.43251 -13.72457,4.18178 -17.71159,10.57869 -1.22437,1.96449 -3.05637,6.03183 -3.06337,6.8032 -0.009,0.88682 1.20882,2.22529 5.58674,6.14019 4.80511,4.29707 8.04711,7.78122 10.62002,11.41378 2.41022,3.4028 2.8483,3.90669 3.72949,4.29017 1.68079,0.73147 4.07637,0.28968 7.34012,-1.35392 4.79363,-2.41409 10.34325,-7.94896 12.10158,-12.06955 0.70025,-1.64094 0.8863,-2.90342 0.8754,-5.94589 -0.0295,-8.28205 -4.587,-15.78839 -11.28975,-18.59421 -1.92406,-0.80543 -3.76986,-1.21726 -5.92108,-1.2945 z m -52.239191,39.77639 c -0.552638,-0.0444 -1.054776,-0.0398 -1.470195,0.0217 -3.862686,0.57189 -5.911849,2.40748 -7.298262,6.53759 -1.289,3.8398 -0.788289,7.56718 1.724959,12.84572 2.68468,5.6387 6.099085,9.18472 9.705867,10.08001 2.676901,0.66446 5.636762,-0.48598 8.425322,-3.27525 3.20216,-3.20297 4.80141,-7.4617 4.13929,-11.02207 -0.3656,-1.96593 -1.72941,-5.16229 -3.09646,-7.25692 -1.55855,-2.38821 -4.73158,-5.40398 -6.752038,-6.4177 -1.605977,-0.80576 -3.720586,-1.37995 -5.378483,-1.51308 z m -36.919711,0.75241 c -0.896568,0.0561 -1.93618,0.38045 -3.134692,0.97048 -6.099706,3.00291 -9.895804,12.23907 -8.044987,19.574 0.934446,3.70323 2.498272,6.29295 4.397664,7.28276 1.234068,0.64309 2.900811,0.36352 3.961516,-0.66456 1.102163,-1.06827 1.757349,-3.02596 2.66702,-7.97057 0.729523,-3.96544 1.111722,-5.1572 2.603976,-8.12044 1.915339,-3.8033 2.209791,-6.74019 0.912606,-9.1059 -0.771852,-1.40763 -1.868817,-2.05921 -3.363103,-1.96577 z m -1.349271,39.90144 c -1.210901,-0.12333 -1.46505,0.41503 -1.444357,1.73116 0.02662,1.69313 0.76744,3.15638 1.987993,3.92689 0.550085,0.34725 1.659528,1.45742 2.465482,2.46755 1.458831,1.82839 2.448591,2.6999 3.634921,3.20084 1.352928,0.57129 2.546862,0.14704 4.28656,-1.52342 0.901275,-0.86546 2.112688,-1.81667 2.691825,-2.11357 1.927491,-0.98813 2.776323,-2.33019 2.768823,-4.37854 -0.0051,-1.39973 -0.212487,-1.71594 -1.335836,-2.03812 -1.276585,-0.36612 -2.596174,-0.3294 -5.936071,0.16484 l -2.910417,0.43047 -2.848405,-0.95653 c -1.563099,-0.52512 -2.633981,-0.83757 -3.360518,-0.91157 z" /></g></g></svg>
